<?xml version="1.0" encoding="UTF-8" standalone="no"?><!-- Generator: Gravit.io --><svg xmlns="http://www.w3.org/2000/svg" xmlns:xlink="http://www.w3.org/1999/xlink" style="isolation:isolate" viewBox="0 0 1000 1000" width="1000pt" height="1000pt"><defs><clipPath id="_clipPath_iIAFglo0VKHFOIHEazD7KSy1cezgdLQw"><rect width="1000" height="1000"/></clipPath></defs><g clip-path="url(#_clipPath_iIAFglo0VKHFOIHEazD7KSy1cezgdLQw)"><rect width="1000" height="1000" style="fill:rgb(204,31,0)" fill-opacity="0"/><g><path d="M 70.182 50 L 493.455 50 C 504.593 50 513.636 59.043 513.636 70.182 L 513.636 138.909 C 513.636 150.048 504.593 159.091 493.455 159.091 L 70.182 159.091 C 59.043 159.091 50 150.048 50 138.909 L 50 70.182 C 50 59.043 59.043 50 70.182 50 Z" style="stroke:none;fill:#FF0000;stroke-miterlimit:10;"/><path d="M 71.142 268.182 L 492.495 268.182 C 504.163 268.182 513.636 277.655 513.636 289.323 L 513.636 356.131 C 513.636 367.799 504.163 377.273 492.495 377.273 L 71.142 377.273 C 59.473 377.273 50 367.799 50 356.131 L 50 289.323 C 50 277.655 59.473 268.182 71.142 268.182 Z" style="stroke:none;fill:#FF0000;stroke-miterlimit:10;"/><path d="M 507.505 609.091 L 928.858 609.091 C 940.527 609.091 950 618.564 950 630.233 L 950 697.04 C 950 708.709 940.527 718.182 928.858 718.182 L 507.505 718.182 C 495.837 718.182 486.364 708.709 486.364 697.04 L 486.364 630.233 C 486.364 618.564 495.837 609.091 507.505 609.091 Z" style="stroke:none;fill:#FF0000;stroke-miterlimit:10;"/><path d="M 507.505 840.909 L 928.858 840.909 C 940.527 840.909 950 850.382 950 862.051 L 950 928.858 C 950 940.527 940.527 950 928.858 950 L 507.505 950 C 495.837 950 486.364 940.527 486.364 928.858 L 486.364 862.051 C 486.364 850.382 495.837 840.909 507.505 840.909 Z" style="stroke:none;fill:#FF0000;stroke-miterlimit:10;"/><path d="M 731.818 71.142 L 731.818 492.495 C 731.818 504.163 722.345 513.636 710.677 513.636 L 643.869 513.636 C 632.201 513.636 622.727 504.163 622.727 492.495 L 622.727 71.142 C 622.727 59.473 632.201 50 643.869 50 L 710.677 50 C 722.345 50 731.818 59.473 731.818 71.142 Z" style="stroke:none;fill:#FF0000;stroke-miterlimit:10;"/><path d="M 377.273 507.505 L 377.273 928.858 C 377.273 940.527 367.799 950 356.131 950 L 289.323 950 C 277.655 950 268.182 940.527 268.182 928.858 L 268.182 507.505 C 268.182 495.837 277.655 486.364 289.323 486.364 L 356.131 486.364 C 367.799 486.364 377.273 495.837 377.273 507.505 Z" style="stroke:none;fill:#FF0000;stroke-miterlimit:10;"/><path d="M 159.091 507.505 L 159.091 928.858 C 159.091 940.527 149.618 950 137.949 950 L 71.142 950 C 59.473 950 50 940.527 50 928.858 L 50 507.505 C 50 495.837 59.473 486.364 71.142 486.364 L 137.949 486.364 C 149.618 486.364 159.091 495.837 159.091 507.505 Z" style="stroke:none;fill:#FF0000;stroke-miterlimit:10;"/><path d="M 950 71.142 L 950 492.495 C 950 504.163 940.527 513.636 928.858 513.636 L 862.051 513.636 C 850.382 513.636 840.909 504.163 840.909 492.495 L 840.909 71.142 C 840.909 59.473 850.382 50 862.051 50 L 928.858 50 C 940.527 50 950 59.473 950 71.142 Z" style="stroke:none;fill:#FF0000;stroke-miterlimit:10;"/></g></g></svg>