<?xml version="1.0" encoding="UTF-8" standalone="no"?><!-- Generator: Gravit.io --><svg xmlns="http://www.w3.org/2000/svg" xmlns:xlink="http://www.w3.org/1999/xlink" style="isolation:isolate" viewBox="0 0 1920 1080" width="1920pt" height="1080pt"><defs><clipPath id="_clipPath_aqLpi7apv56tfypFEZfPZ0zGYrhTrgdH"><rect width="1920" height="1080"/></clipPath></defs><g clip-path="url(#_clipPath_aqLpi7apv56tfypFEZfPZ0zGYrhTrgdH)"><rect width="1920" height="1080" style="fill:rgb(204,31,0)" fill-opacity="0"/><g><path d="M 198.046 327.15 L 398.254 327.15 C 403.523 327.15 407.8 331.427 407.8 336.696 L 407.8 369.204 C 407.8 374.473 403.523 378.75 398.254 378.75 L 198.046 378.75 C 192.777 378.75 188.5 374.473 188.5 369.204 L 188.5 336.696 C 188.5 331.427 192.777 327.15 198.046 327.15 Z" style="stroke:none;fill:#FF0000;stroke-miterlimit:10;"/><path d="M 198.5 430.35 L 397.8 430.35 C 403.319 430.35 407.8 434.831 407.8 440.35 L 407.8 471.95 C 407.8 477.469 403.319 481.95 397.8 481.95 L 198.5 481.95 C 192.981 481.95 188.5 477.469 188.5 471.95 L 188.5 440.35 C 188.5 434.831 192.981 430.35 198.5 430.35 Z" style="stroke:none;fill:#FF0000;stroke-miterlimit:10;"/><path d="M 404.9 591.6 L 604.2 591.6 C 609.719 591.6 614.2 596.081 614.2 601.6 L 614.2 633.2 C 614.2 638.719 609.719 643.2 604.2 643.2 L 404.9 643.2 C 399.381 643.2 394.9 638.719 394.9 633.2 L 394.9 601.6 C 394.9 596.081 399.381 591.6 404.9 591.6 Z" style="stroke:none;fill:#FF0000;stroke-miterlimit:10;"/><path d="M 404.9 701.25 L 604.2 701.25 C 609.719 701.25 614.2 705.731 614.2 711.25 L 614.2 742.85 C 614.2 748.369 609.719 752.85 604.2 752.85 L 404.9 752.85 C 399.381 752.85 394.9 748.369 394.9 742.85 L 394.9 711.25 C 394.9 705.731 399.381 701.25 404.9 701.25 Z" style="stroke:none;fill:#FF0000;stroke-miterlimit:10;"/><path d="M 511 337.15 L 511 536.45 C 511 541.969 506.519 546.45 501 546.45 L 469.4 546.45 C 463.881 546.45 459.4 541.969 459.4 536.45 L 459.4 337.15 C 459.4 331.631 463.881 327.15 469.4 327.15 L 501 327.15 C 506.519 327.15 511 331.631 511 337.15 Z" style="stroke:none;fill:#FF0000;stroke-miterlimit:10;"/><path d="M 343.3 543.55 L 343.3 742.85 C 343.3 748.369 338.819 752.85 333.3 752.85 L 301.7 752.85 C 296.181 752.85 291.7 748.369 291.7 742.85 L 291.7 543.55 C 291.7 538.031 296.181 533.55 301.7 533.55 L 333.3 533.55 C 338.819 533.55 343.3 538.031 343.3 543.55 Z" style="stroke:none;fill:#FF0000;stroke-miterlimit:10;"/><path d="M 240.1 543.55 L 240.1 742.85 C 240.1 748.369 235.619 752.85 230.1 752.85 L 198.5 752.85 C 192.981 752.85 188.5 748.369 188.5 742.85 L 188.5 543.55 C 188.5 538.031 192.981 533.55 198.5 533.55 L 230.1 533.55 C 235.619 533.55 240.1 538.031 240.1 543.55 Z" style="stroke:none;fill:#FF0000;stroke-miterlimit:10;"/><path d="M 614.2 337.15 L 614.2 536.45 C 614.2 541.969 609.719 546.45 604.2 546.45 L 572.6 546.45 C 567.081 546.45 562.6 541.969 562.6 536.45 L 562.6 337.15 C 562.6 331.631 567.081 327.15 572.6 327.15 L 604.2 327.15 C 609.719 327.15 614.2 331.631 614.2 337.15 Z" style="stroke:none;fill:#FF0000;stroke-miterlimit:10;"/></g><text transform="matrix(1,0,0,1,708.5,686.25)" style="font-family:'Staatliches';font-weight:400;font-size:450px;font-style:normal;fill:#222222;stroke:none;">Cargo</text></g></svg>