<?xml version="1.0" encoding="UTF-8" standalone="no"?><!-- Generator: Gravit.io --><svg xmlns="http://www.w3.org/2000/svg" xmlns:xlink="http://www.w3.org/1999/xlink" style="isolation:isolate" viewBox="0 0 1000 1000" width="1000pt" height="1000pt"><defs><clipPath id="_clipPath_q7DmHJ9TSNBvMgSGAd5c0X5ocX487ANp"><rect width="1000" height="1000"/></clipPath></defs><g clip-path="url(#_clipPath_q7DmHJ9TSNBvMgSGAd5c0X5ocX487ANp)"><rect width="1000" height="1000" style="fill:rgb(204,31,0)" fill-opacity="0"/><linearGradient id="_lgradient_0" x1="-1.1622647289044605e-16" y1="-5.724587470723463e-17" x2="0.9999999999999999" y2="1.0000000000000002" gradientTransform="matrix(1000,0,0,1000,0,0)" gradientUnits="userSpaceOnUse"><stop offset="0%" stop-opacity="1" style="stop-color:rgb(252,155,0)"/><stop offset="100%" stop-opacity="1" style="stop-color:rgb(254,93,0)"/><stop offset="100%" stop-opacity="1" style="stop-color:rgb(251,151,0)"/></linearGradient><rect x="0" y="0" width="1000" height="1000" transform="matrix(1,0,0,1,0,0)" fill="url(#_lgradient_0)"/><rect x="100" y="100" width="425" height="100" transform="matrix(1,0,0,1,0,0)" fill="rgb(34,34,34)"/><rect x="100" y="300" width="425" height="100" transform="matrix(1,0,0,1,0,0)" fill="rgb(34,34,34)"/><rect x="500" y="612.5" width="425" height="100" transform="matrix(1,0,0,1,0,0)" fill="rgb(34,34,34)"/><rect x="500" y="825" width="425" height="100" transform="matrix(1,0,0,1,0,0)" fill="rgb(34,34,34)"/><rect x="462.5" y="262.5" width="425" height="100" transform="matrix(0,1,-1,0,987.5,-362.5)" fill="rgb(34,34,34)"/><rect x="137.5" y="662.5" width="425" height="100" transform="matrix(0,1,-1,0,1062.5,362.5)" fill="rgb(34,34,34)"/><rect x="-62.5" y="662.5" width="425" height="100" transform="matrix(0,1,-1,0,862.5,562.5)" fill="rgb(34,34,34)"/><rect x="662.5" y="262.5" width="425" height="100" transform="matrix(0,1,-1,0,1187.5,-562.5)" fill="rgb(34,34,34)"/></g></svg>